Coordinates
version=1
nRows=16
nColumns=33
inDegrees=yes

Units are S.I. units (second, meters, Newtons, ...)
Angles are in degrees.

endheader
time	ground_thorax_rot_x	ground_thorax_rot_y	ground_thorax_rot_z	ground_thorax_tx	ground_thorax_ty	ground_thorax_tz	clav_prot_r	clav_elev_r	scapula_abduction_r	scapula_elevation_r	scapula_upward_rot_r	scapula_winging_r	shoulder_elv_r	plane_of_elev_r	axial_rot_r	elbow_flexion_r	pro_sup_r	wrist_flex_r	wrist_dev_r	clav_prot_l	clav_elev_l	scapula_abduction_l	scapula_elevation_l	scapula_upward_rot_l	scapula_winging_l	shoulder_elv_l	plane_of_elev_l	axial_rot_l	elbow_flexion_l	pro_sup_l	wrist_flex_l	wrist_dev_l
      1.93000000	      0.16390205	      3.40661071	     12.00412039	     -0.10918602	      1.02742302	      0.02219606	      8.58264215	    -10.66384069	     15.25704814	     -3.64740732	      0.34982386	     -2.61772210	    -46.58388597	    -74.26276623	     92.28416492	    -78.90674884	   -149.85798506	     40.83337231	    -24.37631760	      8.02481263	     -2.60637393	     -8.68378919	    -18.62190736	    -33.61166447	     -2.46373999	     62.87453329	    -28.81569533	      3.95896018	     69.84105734	     19.02681470	     12.14243906	    -23.74193630
      1.94000000	      0.17257146	      3.49532004	     11.98100652	     -0.10936068	      1.02729921	      0.02216623	      8.64349308	    -10.74669056	     15.53136525	     -3.86771735	      0.70004165	     -2.69994140	    -46.10952078	    -74.13228601	     92.33764145	    -79.53090376	   -150.04331207	     40.52334238	    -24.22601816	      8.17638059	     -2.78059561	     -8.93529649	    -18.30698440	    -33.32523317	     -2.30492878	     63.08788641	    -28.23860929	      3.73634448	     69.62129923	     19.03037452	     12.36002928	    -23.52060129
      1.95000000	      0.01896704	      3.45070446	     12.09734081	     -0.10986468	      1.02699476	      0.02218453	      8.81686583	    -10.57962635	     15.99098257	     -3.85788582	      1.05274283	     -2.96177902	    -44.72339214	    -73.84964493	     93.79788143	    -80.36533048	   -151.43165415	     36.83643090	    -21.82354561	      8.48064332	     -2.97937225	     -9.51040283	    -18.12674255	    -33.37807563	     -2.07020903	     63.43170009	    -27.82878372	      4.03728618	     69.77882742	     18.58911397	     14.16056859	    -21.74942615
      1.96000000	      0.02715192	      3.53187038	     12.08924447	     -0.11021080	      1.02721101	      0.02206825	      8.94907354	    -10.83049177	     16.37687116	     -4.21329770	      1.36667232	     -3.01635535	    -44.13690711	    -73.75613453	     93.82401834	    -80.76150563	   -151.63713801	     36.49199306	    -21.56876852	      8.65878636	     -3.23860880	     -9.82134327	    -17.74559218	    -33.12730981	     -1.88882692	     63.61730256	    -27.18476290	      3.84118806	     69.25909947	     18.60788040	     14.39423155	    -21.46545489
      1.97000000	     -0.14031141	      3.45195292	     12.20109450	     -0.11079918	      1.02674962	      0.02197777	      9.22321337	    -10.79451080	     16.91249061	     -4.23406421	      1.50842256	     -3.25092825	    -42.38968957	    -73.45888976	     95.33852446	    -81.72530203	   -153.20681945	     32.65092428	    -18.44953980	      9.05229531	     -3.43929649	    -10.57441893	    -17.64798282	    -33.35727515	     -1.60985488	     63.91340440	    -26.66553833	      4.40220498	     69.36487441	     18.08242449	     16.20240627	    -19.72086754
      1.98000000	     -0.17682005	      3.55118783	     12.24234491	     -0.11112891	      1.02708532	      0.02181815	      9.35087687	    -11.09361582	     17.32346228	     -4.65833783	      1.88906107	     -3.29043182	    -41.77901394	    -73.33162899	     95.41259289	    -81.85502472	   -153.41488914	     32.27330986	    -18.16795918	      9.25386925	     -3.70887922	    -10.92472229	    -17.26296293	    -33.11765968	     -1.41473825	     64.10404526	    -26.04429417	      4.18682561	     68.69804010	     18.12104526	     16.41024500	    -19.44131520
      1.99000000	     -0.35366870	      3.53567310	     12.24927853	     -0.11162227	      1.02644504	      0.02172413	      9.56703519	    -11.01028815	     17.85281953	     -4.71297109	      2.22065464	     -3.54759639	    -39.91238161	    -72.94974747	     97.06679086	    -82.68116489	   -154.90650413	     28.58656767	    -14.96816234	      9.74684096	     -3.87632558	    -11.84935070	    -17.19460238	    -33.34832656	     -1.05591513	     64.32463627	    -25.38723240	      4.82882494	     68.70590755	     17.60223215	     17.96331012	    -17.93760556
      2.00000000	     -0.35770081	      3.68771804	     12.58003756	     -0.11238947	      1.02626369	      0.02158777	      9.76024876	    -11.18292967	     17.95750834	     -4.68176548	      1.76417656	     -3.50421669	    -37.01594061	    -72.79149293	     99.12531189	    -83.24254085	   -156.09979173	     26.13075385	    -12.82127560	     10.28142223	     -4.16283454	    -12.86954323	    -17.06961425	    -33.70498216	     -0.66684293	     64.41950736	    -24.52282898	      5.14986549	     68.03627743	     17.18072145	     19.15106191	    -16.69613391
      2.01000000	     -0.65748901	      3.74822871	     12.44233124	     -0.11253524	      1.02666183	      0.02139700	      9.84292211	    -11.61756661	     18.43696408	     -5.34313832	      2.43062951	     -3.51458699	    -36.33632388	    -72.36691718	     99.45819845	    -82.99008235	   -156.27388702	     25.62347591	    -12.46342555	     10.51927181	     -4.36761118	    -13.25993918	    -16.70846357	    -33.38234786	     -0.44823266	     64.72738135	    -24.02198392	      5.21756458	     67.43391723	     17.18289290	     19.27269907	    -16.45567762
      2.02000000	     -0.75657216	      3.84348935	     12.40479956	     -0.11298643	      1.02610473	      0.02109941	      9.98724806	    -11.57013117	     18.99078679	     -5.54427239	      3.05043419	     -3.76791225	    -34.66634220	    -72.05317608	    100.88860367	    -83.15512079	   -157.17114182	     22.85873024	    -10.10179566	     11.05365499	     -4.48764611	    -14.21902448	    -16.57931236	    -33.39588078	     -0.02384248	     64.68169392	    -23.23585817	      5.59602200	     67.11486828	     16.78221659	     20.23161437	    -15.55051023
      2.03000000	     -0.89237055	      3.91162216	     12.74567496	     -0.11368702	      1.02606490	      0.02096845	     10.27764869	    -11.83062603	     19.39764644	     -5.70847003	      2.88218399	     -3.81185142	    -32.33900865	    -71.61863109	    102.49791616	    -83.14811627	   -157.94114407	     20.48961171	     -8.10977848	     11.59585954	     -4.75236275	    -15.22191023	    -16.41182075	    -33.62156229	      0.39057734	     64.66167741	    -22.59093907	      6.10993287	     66.34150606	     16.35573515	     21.17205400	    -14.59786499
      2.04000000	     -1.04056853	      4.06712222	     12.69784089	     -0.11381375	      1.02631532	      0.02075717	     10.39853091	    -12.25603920	     19.89877735	     -6.32046394	      3.46219687	     -3.81679422	    -31.67146344	    -71.28210766	    102.62622910	    -82.64754699	   -158.04382018	     20.11208359	     -7.89324658	     11.82338450	     -5.01077767	    -15.59422286	    -16.01421986	    -33.32458212	      0.60256877	     64.87622921	    -21.99153387	      5.93749373	     65.49949215	     16.41570385	     21.28130142	    -14.37417952
      2.05000000	     -1.13372606	      4.17039047	     12.84684993	     -0.11429746	      1.02572638	      0.02062596	     10.51989773	    -12.15390476	     20.32610333	     -6.39705937	      3.89867267	     -4.03945955	    -29.44814749	    -70.83828960	    104.61672849	    -82.49320372	   -158.94504328	     17.18170358	     -5.35620706	     12.42566064	     -5.10166261	    -16.67912489	    -15.96892099	    -33.46444436	      1.07872098	     64.66686349	    -21.07462780	      6.58490063	     64.74755333	     15.83321629	     22.37754918	    -13.43068012
      2.06000000	     -1.32028235	      4.31839907	     12.76610517	     -0.11446836	      1.02596876	      0.02046974	     10.71949446	    -12.69026461	     20.91467152	     -7.06711499	      4.38629586	     -4.01833982	    -28.62564065	    -70.39744848	    104.74445838	    -81.82398810	   -159.02320981	     16.77866936	     -5.13833220	     12.68382421	     -5.38691660	    -17.10469289	    -15.55130441	    -33.17804503	      1.31689742	     64.93069238	    -20.52906042	      6.44574229	     63.87134581	     15.88355174	     22.49063849	    -13.19443243
      2.07000000	     -1.38965957	      4.41900665	     13.00723399	     -0.11509130	      1.02539512	      0.02019671	     10.95484778	    -12.74713203	     21.34292122	     -7.13849720	      4.45550863	     -4.16987989	    -25.79329050	    -69.92620074	    107.03146537	    -81.45021418	   -159.75175246	     13.96438887	     -2.68954343	     13.34665675	     -5.47863473	    -18.30304882	    -15.55637188	    -33.43190422	      1.84024676	     64.61639139	    -19.53836360	      7.22370582	     63.02043829	     15.23673990	     23.60525181	    -12.26147761
      2.08000000	     -1.56490735	      4.59369685	     13.14332180	     -0.11525895	      1.02548161	      0.01991876	     11.15130369	    -13.26445149	     21.93012540	     -7.79797042	      4.96311695	     -4.14305918	    -25.23255295	    -69.72425592	    107.13740462	    -80.50225046	   -159.75116387	     13.68118417	     -2.58301021	     13.58519683	     -5.71085328	    -18.69115219	    -15.21257380	    -33.19300903	      2.05314167	     64.83132815	    -19.07669468	      6.82036081	     62.16198025	     15.34850253	     23.67870011	    -12.08796666
